.
..............................Site Info...........................

 -   http://www.scenetime.com  *_*    

Scenetime .Always on time . friendly online private torrent community ..

     We care to share . Join us on  http://www.scenetime.com 

    Be the first to get new release at  http://www.scenetime.com

        Seed back for speed


...................................NFO:.................................................http://i.imgur.com/O5Asx.jpg

Dredd 3D (2012) CAM READNFO XviD - (GalaxyRelease)

Format                           : AVI
Format/Info                      : Audio Video Interleave
File size                        : 1.00 GiB
Duration                         : 1h 28mn
Overall bit rate                 : 1 627 Kbps

Video
ID                               : 0
Format                           : MPEG-4 Visual
Format profile                   : Advanced Simple@L5
Format settings, BVOP            : 2
Format settings, QPel            : No
Format settings, GMC             : No warppoints
Format settings, Matrix          : Default (H.263)
Muxing mode                      : Packed bitstream
Codec ID                         : XVID
Codec ID/Hint                    : XviD
Duration                         : 1h 28mn
Bit rate                         : 1 488 Kbps
Width                            : 720 pixels
Height                           : 288 pixels
Display aspect ratio             : 2.500
Frame rate                       : 29.970 fps
Color space                      : YUV
Chroma subsampling               : 4:2:0
Bit depth                        : 8 bits
Scan type                        : Progressive
Compression mode                 : Lossy
Bits/(Pixel*Frame)               : 0.239
Stream size                      : 939 MiB (91%)
Writing library                  : XviD 64

Audio
ID                               : 1
Format                           : MPEG Audio
Format version                   : Version 1
Format profile                   : Layer 3
Codec ID                         : 55
Codec ID/Hint                    : MP3
Duration                         : 1h 28mn
Bit rate mode                    : Constant
Bit rate                         : 128 Kbps
Channel(s)                       : 2 channels
Sampling rate                    : 44.1 KHz
Compression mode                 : Lossy
Stream size                      : 80.8 MiB (8%)
Alignment                        : Split accross interleaves
Interleave, duration             : 33 ms (1.00 video frame)
 
http://www.imdb.com/title/tt1343727/

In a violent, futuristic city where the police have the authority to act 
as judge, jury and executioner, a cop teams with a trainee to take down a 
gang that deals the reality-altering drug, SLO-MO.

| Action | Sci-Fi | Ratings: 7.8/10 from 11,514 users |
 
http://i.imgur.com/5OF8u.png 
http://i.imgur.com/Xc361.png 
http://i.imgur.com/qAylw.png 
http://i.imgur.com/tzaYA.png 
http://i.imgur.com/u5sNr.png 
http://i.imgur.com/AG0CT.png

Source Used ~ 26k (Thanks)

Notes ~ Video has small black borders every now and again, this is due to camera
movement. Video is pretty dark and there are a few focus issues here and there.
It's not often we do these so don't complain, we only did this copy in the first
place for home use but then figured somebody else may want it as well. So Enjoy!